<svg width="1600" height="900" viewBox="0 0 1600 900" fill="none" xmlns="http://www.w3.org/2000/svg">
  <defs>
    <radialGradient id="g1" cx="0" cy="0" r="1" gradientUnits="userSpaceOnUse" gradientTransform="translate(520 330) rotate(90) scale(520 720)">
      <stop stop-color="#C9A84C" stop-opacity="0.22"/>
      <stop offset="1" stop-color="#C9A84C" stop-opacity="0"/>
    </radialGradient>
    <radialGradient id="g2" cx="0" cy="0" r="1" gradientUnits="userSpaceOnUse" gradientTransform="translate(1120 520) rotate(90) scale(520 760)">
      <stop stop-color="#8B1A2E" stop-opacity="0.18"/>
      <stop offset="1" stop-color="#8B1A2E" stop-opacity="0"/>
    </radialGradient>
    <linearGradient id="g3" x1="0" y1="0" x2="1600" y2="900" gradientUnits="userSpaceOnUse">
      <stop stop-color="#FAF7F2"/>
      <stop offset="0.55" stop-color="#FFFDF9"/>
      <stop offset="1" stop-color="#FAF7F2"/>
    </linearGradient>
    <filter id="blur" x="-20%" y="-20%" width="140%" height="140%">
      <feGaussianBlur stdDeviation="18"/>
    </filter>
  </defs>

  <rect width="1600" height="900" fill="url(#g3)"/>
  <circle cx="520" cy="330" r="520" fill="url(#g1)"/>
  <circle cx="1120" cy="520" r="560" fill="url(#g2)"/>

  <!-- soft star field -->
  <g opacity="0.42" filter="url(#blur)">
    <circle cx="210" cy="180" r="2.2" fill="#8B1A2E"/>
    <circle cx="280" cy="260" r="1.8" fill="#C9A84C"/>
    <circle cx="360" cy="140" r="1.6" fill="#8B1A2E"/>
    <circle cx="520" cy="220" r="1.8" fill="#C9A84C"/>
    <circle cx="680" cy="160" r="1.4" fill="#8B1A2E"/>
    <circle cx="820" cy="240" r="1.8" fill="#C9A84C"/>
    <circle cx="980" cy="170" r="1.6" fill="#8B1A2E"/>
    <circle cx="1180" cy="250" r="2.0" fill="#C9A84C"/>
    <circle cx="1320" cy="190" r="1.6" fill="#8B1A2E"/>
    <circle cx="1450" cy="280" r="1.8" fill="#C9A84C"/>

    <circle cx="260" cy="640" r="1.8" fill="#C9A84C"/>
    <circle cx="380" cy="720" r="1.6" fill="#8B1A2E"/>
    <circle cx="560" cy="690" r="1.8" fill="#C9A84C"/>
    <circle cx="740" cy="760" r="1.6" fill="#8B1A2E"/>
    <circle cx="920" cy="700" r="2.0" fill="#C9A84C"/>
    <circle cx="1100" cy="760" r="1.7" fill="#8B1A2E"/>
    <circle cx="1280" cy="690" r="1.9" fill="#C9A84C"/>
    <circle cx="1460" cy="740" r="1.6" fill="#8B1A2E"/>
  </g>

  <!-- subtle mandala arcs -->
  <g opacity="0.12" stroke="#8B1A2E" stroke-width="2">
    <path d="M220 450c210-210 530-210 740 0" />
    <path d="M300 510c170-170 430-170 600 0" />
    <path d="M420 580c110-110 290-110 400 0" />
  </g>
</svg>

